Land_normalized_pl15_filtered_grf
version=1
nRows=22
nColumns=37
inDegrees=yes
endheader
time		1_ground_force_vx		1_ground_force_vy		1_ground_force_vz		1_ground_force_px		1_ground_force_py		1_ground_force_pz		1_ground_torque_x		1_ground_torque_y		1_ground_torque_z		2_ground_force_vx		2_ground_force_vy		2_ground_force_vz		2_ground_force_px		2_ground_force_py		2_ground_force_pz		2_ground_torque_x		2_ground_torque_y		2_ground_torque_z		3_ground_force_vx		3_ground_force_vy		3_ground_force_vz		3_ground_force_px		3_ground_force_py		3_ground_force_pz		3_ground_torque_x		3_ground_torque_y		3_ground_torque_z		4_ground_force_vx		4_ground_force_vy		4_ground_force_vz		4_ground_force_px		4_ground_force_py		4_ground_force_pz		4_ground_torque_x		4_ground_torque_y		4_ground_torque_z		
1.980333		-14.014399		596.149094		180.785257		0.083673		0.000000		0.198974		-0.325984		13.868209		4.205677		98.384359		682.961542		228.417107		-0.136658		0.000000		0.229818		0.268752		1.865613		0.623956		22.631358		2.082601		0.290848		0.375787		1.311060		1.913898		-0.092630		-0.008524		-0.001190		-19.398802		-0.301048		1.854233		-0.265200		1.309938		1.924893		0.018818		0.000292		-0.001799		
1.983995		-21.080687		606.219628		167.944573		0.085930		0.000000		0.200124		-0.470059		13.517569		3.744854		99.430776		682.735103		224.618872		-0.137271		0.000000		0.229772		0.277197		1.903353		0.626201		22.552852		2.065081		0.142376		0.375806		1.311061		1.913910		-0.097272		-0.008907		-0.000614		-19.339827		-0.289262		1.836403		-0.265166		1.309934		1.924900		0.019056		0.000285		-0.001809		
1.987657		-27.258764		618.326679		156.369023		0.088267		0.000000		0.202088		-0.587707		13.331598		3.371472		99.313002		688.937436		221.115457		-0.137628		0.000000		0.229993		0.293046		2.032884		0.652453		22.450041		2.036656		0.061887		0.375832		1.311052		1.913918		-0.100428		-0.009111		-0.000276		-19.154870		-0.318176		1.773107		-0.265133		1.309927		1.924920		0.018261		0.000303		-0.001691		
1.991318		-32.439053		631.531365		146.704035		0.090448		0.000000		0.204236		-0.681078		13.259554		3.080205		97.418590		701.215909		217.601831		-0.137546		0.000000		0.230499		0.288778		2.078585		0.645034		22.363792		2.029187		0.066447		0.375865		1.311038		1.913927		-0.100767		-0.009143		-0.000300		-18.909124		-0.366941		1.650543		-0.265104		1.309919		1.924952		0.017371		0.000337		-0.001516		
1.994980		-36.689987		644.493934		139.054651		0.092227		0.000000		0.205943		-0.753751		13.240369		2.856717		93.329400		718.399767		213.210997		-0.136882		0.000000		0.231280		0.235274		1.810983		0.537479		22.335195		2.041724		0.136812		0.375900		1.311021		1.913934		-0.097713		-0.008932		-0.000599		-18.707451		-0.414717		1.521207		-0.265078		1.309915		1.924990		0.017310		0.000384		-0.001407		
1.998641		-39.929021		655.680498		133.468616		0.093469		0.000000		0.206915		-0.803409		13.192961		2.685535		87.479836		738.604415		207.658812		-0.135749		0.000000		0.232249		0.142200		1.200318		0.337516		22.387417		2.047988		0.227794		0.375932		1.311004		1.913939		-0.091984		-0.008415		-0.000936		-18.641951		-0.455470		1.464903		-0.265052		1.309914		1.925025		0.018321		0.000448		-0.001440		
2.002303		-41.866217		663.771559		130.023512		0.094200		0.000000		0.207243		-0.825479		13.087657		2.563694		81.022321		759.589967		201.666270		-0.134453		0.000000		0.233244		0.048907		0.458158		0.121687		22.506285		2.028320		0.297880		0.375960		1.310990		1.913942		-0.085679		-0.007722		-0.001134		-18.738127		-0.497293		1.521353		-0.265023		1.309914		1.925055		0.019877		0.000527		-0.001614		
2.005965		-42.267608		668.039891		128.660592		0.094543		0.000000		0.207248		-0.822438		12.998631		2.503461		75.018812		779.310688		196.249953		-0.133256		0.000000		0.234114		-0.017313		-0.179920		-0.045299		22.650465		1.990947		0.330482		0.375986		1.310977		1.913939		-0.081354		-0.007151		-0.001187		-18.940907		-0.550886		1.659957		-0.264989		1.309915		1.925077		0.021246		0.000618		-0.001862		
2.009626		-41.133341		668.553970		129.252168		0.094629		0.000000		0.207262		-0.800661		13.013428		2.515899		69.856153		796.278824		191.871143		-0.132232		0.000000		0.234794		-0.058252		-0.664130		-0.160015		22.779669		1.963734		0.341651		0.376011		1.310971		1.913936		-0.080750		-0.006961		-0.001211		-19.142922		-0.615942		1.807740		-0.264958		1.309916		1.925094		0.022056		0.000710		-0.002083		
2.013288		-38.625691		666.193748		131.827846		0.094526		0.000000		0.207439		-0.761315		13.130799		2.598357		65.302457		809.834449		188.339459		-0.131312		0.000000		0.235316		-0.090387		-1.121092		-0.260711		22.872830		1.972225		0.367457		0.376031		1.310976		1.913938		-0.083937		-0.007238		-0.001348		-19.244070		-0.676223		1.902428		-0.264938		1.309918		1.925107		0.022375		0.000786		-0.002212		
2.016949		-34.974948		662.344476		136.425964		0.094198		0.000000		0.207672		-0.702176		13.297622		2.738973		61.065305		820.100773		185.474694		-0.130427		0.000000		0.235727		-0.123199		-1.654624		-0.374206		22.934359		2.023953		0.435235		0.376043		1.310997		1.913950		-0.089487		-0.007897		-0.001698		-19.207256		-0.709140		1.927247		-0.264933		1.309923		1.925120		0.022462		0.000830		-0.002254		
2.020611		-30.548777		658.554681		142.616016		0.093581		0.000000		0.207688		-0.625096		13.475603		2.918274		57.208898		827.716794		183.588685		-0.129586		0.000000		0.236023		-0.152216		-2.202414		-0.488493		22.990433		2.104220		0.535158		0.376041		1.311034		1.913976		-0.095229		-0.008716		-0.002217		-19.071040		-0.697946		1.900788		-0.264946		1.309928		1.925130		0.022400		0.000820		-0.002232		
2.024273		-25.839589		656.153698		149.429086		0.092715		0.000000		0.207315		-0.537537		13.650028		3.108597		54.054793		833.523531		183.170747		-0.128858		0.000000		0.236173		-0.168623		-2.600235		-0.571413		23.067350		2.186484		0.618286		0.376027		1.311084		1.914013		-0.099142		-0.009397		-0.002658		-18.915618		-0.640104		1.847590		-0.264970		1.309934		1.925136		0.021875		0.000740		-0.002137		
2.027934		-21.306993		655.894876		155.900169		0.091792		0.000000		0.206699		-0.448612		13.809707		3.282443		51.758875		838.230082		184.179087		-0.128294		0.000000		0.236185		-0.171105		-2.771037		-0.608863		23.156956		2.250674		0.626005		0.376006		1.311133		1.914052		-0.100063		-0.009725		-0.002705		-18.805655		-0.548393		1.778681		-0.264997		1.309939		1.925134		0.020455		0.000597		-0.001935		
2.031596		-17.334990		657.773400		161.431317		0.091052		0.000000		0.206195		-0.367499		13.944731		3.422329		50.077168		842.234415		185.773824		-0.127870		0.000000		0.236126		-0.167323		-2.814161		-0.620726		23.202398		2.288179		0.529312		0.375985		1.311171		1.914084		-0.097993		-0.009664		-0.002236		-18.758251		-0.443461		1.696418		-0.265021		1.309943		1.925125		0.018041		0.000427		-0.001631		
2.035258		-14.278325		661.037404		165.772840		0.090627		0.000000		0.206023		-0.303443		14.048389		3.523010		48.587536		845.600968		186.814564		-0.127527		0.000000		0.236079		-0.166645		-2.900261		-0.640741		23.127847		2.294337		0.351617		0.375966		1.311186		1.914099		-0.094025		-0.009328		-0.001429		-18.748488		-0.347427		1.612700		-0.265036		1.309947		1.925111		0.015004		0.000278		-0.001291		
2.038919		-12.408856		664.528432		169.000243		0.090487		0.000000		0.206092		-0.263546		14.113582		3.589310		47.132751		848.179174		186.665299		-0.127224		0.000000		0.236052		-0.171896		-3.093387		-0.680784		22.899351		2.260024		0.153452		0.375947		1.311175		1.914094		-0.089752		-0.008858		-0.000602		-18.745317		-0.280865		1.556427		-0.265041		1.309950		1.925095		0.012027		0.000180		-0.000998		
2.042581		-11.804943		667.151165		171.589495		0.090513		0.000000		0.206110		-0.249510		14.100937		3.626722		45.950201		849.824279		185.514705		-0.126971		0.000000		0.235975		-0.178377		-3.298997		-0.720163		22.563379		2.172691		-0.005749		0.375923		1.311146		1.914077		-0.086570		-0.008336		0.000022		-18.744267		-0.257078		1.555976		-0.265040		1.309951		1.925081		0.009909		0.000136		-0.000823		
2.046242		-12.323057		668.236008		174.255650		0.090615		0.000000		0.205833		-0.256906		13.931202		3.632828		45.319538		850.616870		184.039071		-0.126798		0.000000		0.235770		-0.180062		-3.379632		-0.731215		22.222482		2.032621		-0.093549		0.375890		1.311103		1.914051		-0.085216		-0.007795		0.000359		-18.769275		-0.271884		1.608337		-0.265037		1.309947		1.925071		0.009321		0.000135		-0.000799		
2.049904		-13.676001		667.596008		177.482024		0.090765		0.000000		0.205202		-0.277873		13.564580		3.606170		45.111818		850.879406		182.804262		-0.126696		0.000000		0.235418		-0.175481		-3.309851		-0.711094		21.969008		1.871043		-0.106543		0.375852		1.311055		1.914022		-0.085736		-0.007302		0.000416		-18.851065		-0.304021		1.674815		-0.265037		1.309940		1.925064		0.010488		0.000169		-0.000932		
2.053566		-15.517181		665.295361		181.239062		0.090950		0.000000		0.204313		-0.304705		13.064273		3.558949		44.763533		850.944992		182.010616		-0.126613		0.000000		0.234966		-0.168342		-3.200153		-0.684489		21.839921		1.744606		-0.059431		0.375816		1.311013		1.913991		-0.087881		-0.007020		0.000239		-19.007782		-0.332141		1.704074		-0.265044		1.309932		1.925064		0.012940		0.000226		-0.001160		
2.057227		-17.533374		661.448630		185.112884		0.091167		0.000000		0.203338		-0.332276		12.535400		3.508140		43.711142		850.872785		181.696965		-0.126495		0.000000		0.234465		-0.163199		-3.176814		-0.678383		21.812199		1.699065		0.018768		0.375792		1.310983		1.913963		-0.091278		-0.007110		-0.000079		-19.232606		-0.346776		1.667911		-0.265061		1.309926		1.925067		0.015582		0.000281		-0.001351		
